<svg width="162" height="41" viewBox="0 0 162 41" fill="none" xmlns="http://www.w3.org/2000/svg">
<g clip-path="url(#clip0_19_7526)">
<path d="M6.90228 30.89H1.05292V11.2183H6.88101V30.89H6.90228Z" fill="#F6F6F9"/>
<path d="M18.1968 30.8901H12.3049V11.2183H18.1756V14.077C19.2391 12.1077 21.515 10.7948 23.8973 10.7948C28.3428 10.7948 31.1292 13.5264 31.1292 19.1378V30.8901H25.2586V20.4084C25.2586 17.7614 23.8122 16.4909 21.8341 16.4909C19.7708 16.4909 18.1968 17.5073 18.1968 20.4931V30.8901V30.8901Z" fill="#F6F6F9"/>
<path d="M4.00949 7.66085C2.07389 7.66085 0.499878 6.09389 0.499878 4.14577C0.499878 2.21882 2.07389 0.651855 4.00949 0.651855C5.9451 0.651855 7.51911 2.21882 7.51911 4.14577C7.54038 6.09389 5.96637 7.66085 4.00949 7.66085Z" fill="#CE0014"/>
<path d="M15.3041 7.66085C13.3685 7.66085 11.7945 6.09389 11.7945 4.16694C11.7732 2.21882 13.3472 0.651855 15.3041 0.651855C17.2397 0.651855 18.8137 2.21882 18.8137 4.14577C18.8137 6.09389 17.2397 7.66085 15.3041 7.66085Z" fill="#F4A519"/>
<path d="M26.2158 7.6608C24.2802 7.6608 22.7062 6.09383 22.7062 4.16689C22.7062 2.23994 24.2802 0.672974 26.2158 0.672974C28.1514 0.672974 29.7254 2.23994 29.7254 4.16689C29.7467 6.09383 28.1727 7.6608 26.2158 7.6608Z" fill="#00D1A6"/>
</g>
<path d="M51.4591 30.8901L46.5991 23.8701H46.3111H41.2351V30.8901H35.4031V5.69006H46.3111C48.5431 5.69006 50.4751 6.06206 52.1071 6.80606C53.7631 7.55006 55.0351 8.60606 55.9231 9.97406C56.8111 11.3421 57.2551 12.9621 57.2551 14.8341C57.2551 16.7061 56.7991 18.3261 55.8871 19.6941C54.9991 21.0381 53.7271 22.0701 52.0711 22.7901L57.7231 30.8901H51.4591ZM51.3511 14.8341C51.3511 13.4181 50.8951 12.3381 49.9831 11.5941C49.0711 10.8261 47.7391 10.4421 45.9871 10.4421H41.2351V19.2261H45.9871C47.7391 19.2261 49.0711 18.8421 49.9831 18.0741C50.8951 17.3061 51.3511 16.2261 51.3511 14.8341Z" fill="#F6F6F9"/>
<path d="M80.4518 21.2781C80.4518 21.3501 80.4158 21.8541 80.3438 22.7901H65.6918C65.9558 23.9901 66.5798 24.9381 67.5638 25.6341C68.5478 26.3301 69.7718 26.6781 71.2358 26.6781C72.2438 26.6781 73.1318 26.5341 73.8998 26.2461C74.6918 25.9341 75.4238 25.4541 76.0958 24.8061L79.0838 28.0461C77.2598 30.1341 74.5958 31.1781 71.0918 31.1781C68.9078 31.1781 66.9758 30.7581 65.2958 29.9181C63.6158 29.0541 62.3198 27.8661 61.4078 26.3541C60.4958 24.8421 60.0398 23.1261 60.0398 21.2061C60.0398 19.3101 60.4838 17.6061 61.3718 16.0941C62.2838 14.5581 63.5198 13.3701 65.0798 12.5301C66.6638 11.6661 68.4278 11.2341 70.3718 11.2341C72.2678 11.2341 73.9838 11.6421 75.5198 12.4581C77.0558 13.2741 78.2558 14.4501 79.1198 15.9861C80.0078 17.4981 80.4518 19.2621 80.4518 21.2781ZM70.4078 15.4821C69.1358 15.4821 68.0678 15.8421 67.2038 16.5621C66.3398 17.2821 65.8118 18.2661 65.6198 19.5141H75.1598C74.9678 18.2901 74.4398 17.3181 73.5758 16.5981C72.7118 15.8541 71.6558 15.4821 70.4078 15.4821Z" fill="#F6F6F9"/>
<path d="M95.6387 11.2341C97.4387 11.2341 99.0707 11.6541 100.535 12.4941C102.023 13.3101 103.187 14.4741 104.027 15.9861C104.867 17.4741 105.287 19.2141 105.287 21.2061C105.287 23.1981 104.867 24.9501 104.027 26.4621C103.187 27.9501 102.023 29.1141 100.535 29.9541C99.0707 30.7701 97.4387 31.1781 95.6387 31.1781C93.1667 31.1781 91.2227 30.3981 89.8067 28.8381V37.8741H84.1907V11.5221H89.5547V13.7541C90.9467 12.0741 92.9747 11.2341 95.6387 11.2341ZM94.6667 26.5701C96.1067 26.5701 97.2827 26.0901 98.1947 25.1301C99.1307 24.1461 99.5987 22.8381 99.5987 21.2061C99.5987 19.5741 99.1307 18.2781 98.1947 17.3181C97.2827 16.3341 96.1067 15.8421 94.6667 15.8421C93.2267 15.8421 92.0387 16.3341 91.1027 17.3181C90.1907 18.2781 89.7347 19.5741 89.7347 21.2061C89.7347 22.8381 90.1907 24.1461 91.1027 25.1301C92.0387 26.0901 93.2267 26.5701 94.6667 26.5701Z" fill="#F6F6F9"/>
<path d="M118.262 31.1781C116.222 31.1781 114.386 30.7581 112.754 29.9181C111.146 29.0541 109.886 27.8661 108.974 26.3541C108.062 24.8421 107.606 23.1261 107.606 21.2061C107.606 19.2861 108.062 17.5701 108.974 16.0581C109.886 14.5461 111.146 13.3701 112.754 12.5301C114.386 11.6661 116.222 11.2341 118.262 11.2341C120.302 11.2341 122.126 11.6661 123.734 12.5301C125.342 13.3701 126.602 14.5461 127.514 16.0581C128.426 17.5701 128.882 19.2861 128.882 21.2061C128.882 23.1261 128.426 24.8421 127.514 26.3541C126.602 27.8661 125.342 29.0541 123.734 29.9181C122.126 30.7581 120.302 31.1781 118.262 31.1781ZM118.262 26.5701C119.702 26.5701 120.878 26.0901 121.79 25.1301C122.726 24.1461 123.194 22.8381 123.194 21.2061C123.194 19.5741 122.726 18.2781 121.79 17.3181C120.878 16.3341 119.702 15.8421 118.262 15.8421C116.822 15.8421 115.634 16.3341 114.698 17.3181C113.762 18.2781 113.294 19.5741 113.294 21.2061C113.294 22.8381 113.762 24.1461 114.698 25.1301C115.634 26.0901 116.822 26.5701 118.262 26.5701Z" fill="#F6F6F9"/>
<path d="M138 14.0781C138.672 13.1421 139.572 12.4341 140.7 11.9541C141.852 11.4741 143.172 11.2341 144.66 11.2341V16.4181C144.036 16.3701 143.616 16.3461 143.4 16.3461C141.792 16.3461 140.532 16.8021 139.62 17.7141C138.708 18.6021 138.252 19.9461 138.252 21.7461V30.8901H132.636V11.5221H138V14.0781Z" fill="#F6F6F9"/>
<path d="M161.159 29.9541C160.607 30.3621 159.923 30.6741 159.107 30.8901C158.315 31.0821 157.475 31.1781 156.587 31.1781C154.283 31.1781 152.495 30.5901 151.223 29.4141C149.975 28.2381 149.351 26.5101 149.351 24.2301V16.2741H146.363V11.9541H149.351V7.23806H154.967V11.9541H159.791V16.2741H154.967V24.1581C154.967 24.9741 155.171 25.6101 155.579 26.0661C156.011 26.4981 156.611 26.7141 157.379 26.7141C158.267 26.7141 159.023 26.4741 159.647 25.9941L161.159 29.9541Z" fill="#F6F6F9"/>
<defs>
<clipPath id="clip0_19_7526">
<rect width="35" height="40" fill="white" transform="translate(0.499878 0.52478)"/>
</clipPath>
</defs>
</svg>
